<?xml version="1.0" encoding="UTF-8"?>
<svg id="logos" xmlns="http://www.w3.org/2000/svg" viewBox="0 0 383.8 49.63">
  <defs>
    <style>
      .cls-1 {
        fill: #272729;
      }

      .cls-2 {
        fill: #efe6d4;
      }
    </style>
  </defs>
  <g>
    <path class="cls-1" d="M221.83,18.43c.15,0,.27.04.37.13.1.09.12.2.06.33l-6.6,12.03c-.09.2-.26.3-.51.3-.1,0-.21-.03-.3-.08s-.17-.13-.23-.22l-6.58-12.03c-.03-.07-.04-.11-.04-.12,0-.1.05-.18.14-.24s.2-.1.32-.1c.18,0,.31.08.4.23l6.29,11.51,6.29-11.51c.09-.15.22-.23.4-.23Z"/>
    <path class="cls-1" d="M233.84,31.01c-.11-.08-.17-.17-.17-.27v-11.8c0-.11.06-.2.17-.28.11-.08.24-.12.39-.12h8.59c.12,0,.21.03.29.1.07.07.11.15.11.26,0,.09-.04.18-.11.24-.08.07-.17.1-.29.1h-8.21v5.16h7.76c.12,0,.21.03.29.09.07.06.11.14.11.25s-.04.19-.11.26c-.08.07-.17.1-.29.1h-7.76v5.34h8.21c.12,0,.21.03.29.09.07.06.11.14.11.25s-.04.19-.11.26c-.08.07-.17.1-.29.1h-8.59c-.15,0-.28-.04-.39-.12Z"/>
    <path class="cls-1" d="M267.49,18.88v11.94c0,.12-.04.22-.12.29-.08.08-.2.12-.35.12-.1,0-.19-.02-.25-.05-.06-.04-.13-.1-.2-.18l-10.26-11.17v10.99c0,.12-.04.22-.12.29-.08.08-.19.12-.32.12-.28,0-.42-.14-.42-.41v-11.94c0-.12.04-.22.12-.29.08-.08.2-.12.37-.12.1,0,.18.01.23.04.05.03.12.09.21.17l10.24,11.17v-10.98c0-.12.04-.22.12-.29s.19-.12.32-.12c.28,0,.42.14.42.41Z"/>
    <path class="cls-1" d="M284.73,31.11c-.08-.08-.12-.18-.12-.29v-11.58h-5.47c-.12,0-.22-.03-.29-.09-.07-.06-.11-.14-.11-.25,0-.1.04-.18.11-.24s.17-.1.29-.1h11.85c.1,0,.2.03.29.1.09.07.13.15.13.24,0,.11-.04.19-.13.25-.09.06-.19.09-.29.09h-5.44v11.58c0,.12-.04.22-.12.29-.08.08-.2.12-.35.12s-.26-.04-.35-.12Z"/>
    <path class="cls-1" d="M304.04,30.04c-1-.83-1.51-2.05-1.51-3.67v-7.5c0-.13.04-.23.12-.3.08-.07.2-.11.35-.11.13,0,.24.04.32.12.08.08.12.18.12.29v7.62c0,2.7,1.68,4.05,5.04,4.05,1.65,0,2.9-.34,3.75-1.02.85-.68,1.27-1.69,1.27-3.03v-7.62c0-.12.05-.22.14-.29s.2-.12.32-.12c.13,0,.25.04.33.12s.13.18.13.29v7.5c0,1.62-.51,2.84-1.52,3.67-1.01.83-2.49,1.24-4.44,1.24s-3.45-.41-4.45-1.24Z"/>
    <path class="cls-1" d="M339.1,30.9c0,.08-.04.16-.12.22s-.18.1-.3.1c-.15,0-.28-.06-.38-.18l-3.03-3.94c-.45-.59-.92-1-1.42-1.21-.5-.21-1.19-.32-2.06-.32h-3.35v5.25c0,.12-.04.22-.12.29-.08.08-.19.12-.32.12-.15,0-.26-.04-.35-.11-.08-.07-.12-.17-.12-.3v-11.87c0-.11.06-.2.17-.28.11-.08.24-.12.39-.12h5.51c1.62,0,2.87.29,3.76.88s1.33,1.45,1.33,2.6c0,1.02-.39,1.83-1.17,2.41-.78.58-1.88.92-3.29,1,.34.1.66.26.95.48s.58.53.88.91l2.99,3.87c.04.07.07.14.07.2ZM333.61,24.85c2.72,0,4.08-.95,4.08-2.84,0-.93-.33-1.62-1-2.08-.67-.46-1.7-.69-3.08-.69h-5.15v5.6h5.15Z"/>
    <path class="cls-1" d="M351.72,31.01c-.11-.08-.17-.17-.17-.27v-11.8c0-.11.06-.2.17-.28.11-.08.24-.12.39-.12h8.59c.12,0,.21.03.29.1.07.07.11.15.11.26,0,.09-.04.18-.11.24-.08.07-.17.1-.29.1h-8.21v5.16h7.76c.12,0,.21.03.29.09.07.06.11.14.11.25s-.04.19-.11.26c-.08.07-.17.1-.29.1h-7.76v5.34h8.21c.12,0,.21.03.29.09.07.06.11.14.11.25s-.04.19-.11.26c-.08.07-.17.1-.29.1h-8.59c-.15,0-.28-.04-.39-.12Z"/>
  </g>
  <path class="cls-1" d="M29.87,31.08c0,.09-.04.17-.12.22s-.18.08-.3.08c-.22,0-.38-.08-.47-.25l-1.81-3.32h-8.9l-1.83,3.32c-.09.17-.24.25-.45.25-.16,0-.29-.04-.38-.12-.09-.08-.1-.19-.04-.32l6.6-12.05c.09-.19.27-.29.54-.29.12,0,.23.03.32.08s.17.12.21.21l6.58,12.05c.03.07.04.12.04.14ZM18.64,27.1h8.12l-4.06-7.42-4.06,7.42Z"/>
  <g>
    <g>
      <g>
        <path class="cls-2" d="M54.03,27.69c0-.54-.21-.96-.63-1.26-.42-.3-1.1-.52-2.03-.65l-2.23-.34c-1.73-.25-2.96-.67-3.69-1.25-.74-.58-1.11-1.42-1.11-2.52s.51-2.01,1.54-2.65c1.03-.64,2.46-.96,4.29-.96,1.67,0,2.95.27,3.86.81s1.53,1.41,1.86,2.6l-2.05.32c-.29-.7-.71-1.21-1.29-1.51-.57-.3-1.37-.46-2.41-.46-1.17,0-2.07.16-2.7.46-.64.31-.96.75-.96,1.32s.21.96.62,1.23c.41.27,1.14.49,2.19.66l2.52.38c1.51.23,2.62.65,3.34,1.26.71.61,1.07,1.46,1.07,2.54,0,1.19-.51,2.12-1.53,2.78s-2.45.99-4.31.99c-3.97,0-6.1-1.37-6.39-4.12h2.18c.17.8.59,1.39,1.29,1.78.69.39,1.67.58,2.94.58,1.17,0,2.06-.17,2.69-.52.62-.34.94-.84.94-1.48Z"/>
        <path class="cls-2" d="M88.78,18.39h2.16v10.89h8.16l-.32,1.86h-9.99v-12.74Z"/>
        <path class="cls-2" d="M117.22,27.69c0-.54-.21-.96-.63-1.26-.42-.3-1.1-.52-2.03-.65l-2.23-.34c-1.73-.25-2.96-.67-3.69-1.25-.74-.58-1.11-1.42-1.11-2.52s.51-2.01,1.54-2.65c1.03-.64,2.46-.96,4.29-.96,1.67,0,2.95.27,3.86.81s1.53,1.41,1.86,2.6l-2.05.32c-.29-.7-.71-1.21-1.29-1.51-.57-.3-1.37-.46-2.41-.46-1.17,0-2.07.16-2.7.46-.64.31-.96.75-.96,1.32s.21.96.62,1.23c.41.27,1.14.49,2.19.66l2.52.38c1.51.23,2.62.65,3.34,1.26.71.61,1.07,1.46,1.07,2.54,0,1.19-.51,2.12-1.53,2.78s-2.45.99-4.31.99c-3.97,0-6.1-1.37-6.39-4.12h2.18c.17.8.59,1.39,1.29,1.78.69.39,1.67.58,2.94.58,1.17,0,2.06-.17,2.69-.52.62-.34.94-.84.94-1.48Z"/>
        <path class="cls-2" d="M132.77,20.25h-5.17v-1.86h12.51v1.86h-5.18v10.89h-2.16v-10.89Z"/>
        <path class="cls-2" d="M149.13,18.39h2.16v12.74h-2.16v-12.74Z"/>
        <path class="cls-2" d="M161.09,24.77c0-1.33.28-2.5.85-3.5.57-1,1.37-1.78,2.4-2.35,1.04-.56,2.26-.85,3.68-.85,3.4,0,5.5,1.42,6.28,4.27l-2.12.29c-.33-.95-.83-1.64-1.48-2.06-.65-.42-1.55-.63-2.68-.63-.96,0-1.79.2-2.49.59-.7.39-1.23.95-1.61,1.67-.38.72-.57,1.58-.57,2.58,0,1.51.42,2.7,1.26,3.55s2,1.28,3.47,1.28c1.24,0,2.19-.23,2.87-.68.68-.45,1.13-1.15,1.36-2.09h2.21c-.23,1.49-.9,2.63-2.02,3.43-1.12.8-2.6,1.2-4.44,1.2-1.44,0-2.68-.28-3.72-.83-1.04-.55-1.84-1.33-2.4-2.33-.56-1-.84-2.18-.84-3.53Z"/>
        <path class="cls-2" d="M183.64,18.39h10.33v1.79h-8.19v3.52h7.78v1.78h-7.78v3.87h8.58l-.32,1.78h-10.4v-12.74Z"/>
      </g>
      <path class="cls-2" d="M75.71,19.84c-1.32-1.18-3.02-1.83-4.43-2.11l-1.75-.35c-2.15-.42-3.7-.13-4.95,1.11s-1.53,2.8-1.11,4.95l.35,1.75c.28,1.42.93,3.12,2.11,4.43,2.13,2.38,4.91,3.2,7.85,2.6l1.87-.38c.86-.18,1.19-.28,1.6-.69.41-.41.51-.74.69-1.6l.38-1.87c.6-2.93-.22-5.71-2.6-7.85ZM75.67,29.59c-2.35,2.35-6.16,2.35-8.52,0-2.35-2.35-2.35-6.16,0-8.52,2.35-2.35,6.16-2.35,8.52,0,2.35,2.35,2.35,6.16,0,8.52Z"/>
    </g>
    <g>
      <g>
        <path class="cls-1" d="M54.03,27.69c0-.54-.21-.96-.63-1.26-.42-.3-1.1-.52-2.03-.65l-2.23-.34c-1.73-.25-2.96-.67-3.69-1.25-.74-.58-1.11-1.42-1.11-2.52s.51-2.01,1.54-2.65c1.03-.64,2.46-.96,4.29-.96,1.67,0,2.95.27,3.86.81s1.53,1.41,1.86,2.6l-2.05.32c-.29-.7-.71-1.21-1.29-1.51-.57-.3-1.37-.46-2.41-.46-1.17,0-2.07.16-2.7.46-.64.31-.96.75-.96,1.32s.21.96.62,1.23c.41.27,1.14.49,2.19.66l2.52.38c1.51.23,2.62.65,3.34,1.26.71.61,1.07,1.46,1.07,2.54,0,1.19-.51,2.12-1.53,2.78s-2.45.99-4.31.99c-3.97,0-6.1-1.37-6.39-4.12h2.18c.17.8.59,1.39,1.29,1.78.69.39,1.67.58,2.94.58,1.17,0,2.06-.17,2.69-.52.62-.34.94-.84.94-1.48Z"/>
        <path class="cls-1" d="M88.78,18.39h2.16v10.89h8.16l-.32,1.86h-9.99v-12.74Z"/>
        <path class="cls-1" d="M117.22,27.69c0-.54-.21-.96-.63-1.26-.42-.3-1.1-.52-2.03-.65l-2.23-.34c-1.73-.25-2.96-.67-3.69-1.25-.74-.58-1.11-1.42-1.11-2.52s.51-2.01,1.54-2.65c1.03-.64,2.46-.96,4.29-.96,1.67,0,2.95.27,3.86.81s1.53,1.41,1.86,2.6l-2.05.32c-.29-.7-.71-1.21-1.29-1.51-.57-.3-1.37-.46-2.41-.46-1.17,0-2.07.16-2.7.46-.64.31-.96.75-.96,1.32s.21.96.62,1.23c.41.27,1.14.49,2.19.66l2.52.38c1.51.23,2.62.65,3.34,1.26.71.61,1.07,1.46,1.07,2.54,0,1.19-.51,2.12-1.53,2.78s-2.45.99-4.31.99c-3.97,0-6.1-1.37-6.39-4.12h2.18c.17.8.59,1.39,1.29,1.78.69.39,1.67.58,2.94.58,1.17,0,2.06-.17,2.69-.52.62-.34.94-.84.94-1.48Z"/>
        <path class="cls-1" d="M132.77,20.25h-5.17v-1.86h12.51v1.86h-5.18v10.89h-2.16v-10.89Z"/>
        <path class="cls-1" d="M149.13,18.39h2.16v12.74h-2.16v-12.74Z"/>
        <path class="cls-1" d="M161.09,24.77c0-1.33.28-2.5.85-3.5.57-1,1.37-1.78,2.4-2.35,1.04-.56,2.26-.85,3.68-.85,3.4,0,5.5,1.42,6.28,4.27l-2.12.29c-.33-.95-.83-1.64-1.48-2.06-.65-.42-1.55-.63-2.68-.63-.96,0-1.79.2-2.49.59-.7.39-1.23.95-1.61,1.67-.38.72-.57,1.58-.57,2.58,0,1.51.42,2.7,1.26,3.55s2,1.28,3.47,1.28c1.24,0,2.19-.23,2.87-.68.68-.45,1.13-1.15,1.36-2.09h2.21c-.23,1.49-.9,2.63-2.02,3.43-1.12.8-2.6,1.2-4.44,1.2-1.44,0-2.68-.28-3.72-.83-1.04-.55-1.84-1.33-2.4-2.33-.56-1-.84-2.18-.84-3.53Z"/>
        <path class="cls-1" d="M183.64,18.39h10.33v1.79h-8.19v3.52h7.78v1.78h-7.78v3.87h8.58l-.32,1.78h-10.4v-12.74Z"/>
      </g>
      <path class="cls-1" d="M75.71,19.84c-1.32-1.18-3.02-1.83-4.43-2.11l-1.75-.35c-2.15-.42-3.7-.13-4.95,1.11s-1.53,2.8-1.11,4.95l.35,1.75c.28,1.42.93,3.12,2.11,4.43,2.13,2.38,4.91,3.2,7.85,2.6l1.87-.38c.86-.18,1.19-.28,1.6-.69.41-.41.51-.74.69-1.6l.38-1.87c.6-2.93-.22-5.71-2.6-7.85ZM75.67,29.59c-2.35,2.35-6.16,2.35-8.52,0-2.35-2.35-2.35-6.16,0-8.52,2.35-2.35,6.16-2.35,8.52,0,2.35,2.35,2.35,6.16,0,8.52Z"/>
    </g>
  </g>
</svg>